<svg width="105" height="101" viewBox="0 0 105 101" fill="none" xmlns="http://www.w3.org/2000/svg">
<path d="M104.905 101H90.5048V30.584C90.5048 28.664 90.6968 25.688 91.0808 21.656C91.4648 17.528 91.7048 14.792 91.8008 13.448L89.4968 13.016C89.2088 14.36 88.4888 17.192 87.3368 21.512C86.2808 25.736 85.2248 29.192 84.1688 31.88L57.9608 101H46.8728L20.8088 31.88C19.7528 29.096 18.6488 25.592 17.4968 21.368C16.4408 17.144 15.7688 14.36 15.4808 13.016L13.1768 13.448C13.2728 14.792 13.5128 17.528 13.8968 21.656C14.2808 25.688 14.4728 28.664 14.4728 30.584V101H0.0727508V0.199993H22.6808L47.0168 64.856C48.5528 69.08 49.6088 73.688 50.1848 78.68C50.8568 83.672 51.1928 87.032 51.1928 88.76H53.7848C53.7848 87.032 54.0728 83.672 54.6488 78.68C55.3208 73.688 56.4248 69.08 57.9608 64.856L82.2968 0.199993H104.905V101Z" fill="#116193"/>
</svg>
